0
SECTION
2
HEADER
9
$INSUNITS
70
4
9
$ACADVER
1
AC1014
9
$HANDSEED
5
FFFF
0
ENDSEC
0
SECTION
2
TABLES
0
TABLE
2
VPORT
5
8
100
AcDbSymbolTable
0
ENDTAB
0
TABLE
2
LTYPE
5
5
100
AcDbSymbolTable
70
2
0
LTYPE
5
14
100
AcDbSymbolTableRecord
100
AcDbLinetypeTableRecord
2
BYBLOCK
70
0
0
LTYPE
5
15
100
AcDbSymbolTableRecord
100
AcDbLinetypeTableRecord
2
BYLAYER
70
0
0
ENDTAB
0
TABLE
2
LAYER
5
2
100
AcDbSymbolTable
70
3
0
LAYER
5
50
100
AcDbSymbolTableRecord
100
AcDbLayerTableRecord
2
0
70
0
6
CONTINUOUS
0
LAYER
5
51
100
AcDbSymbolTableRecord
100
AcDbLayerTableRecord
2
CUTOUTS
70
0
62
1
6
CONTINUOUS
0
LAYER
5
52
100
AcDbSymbolTableRecord
100
AcDbLayerTableRecord
2
PERIMETER
70
0
62
5
6
CONTINUOUS
0
ENDTAB
0
TABLE
2
STYLE
5
3
100
AcDbSymbolTable
70
1
0
STYLE
5
11
100
AcDbSymbolTableRecord
100
AcDbTextStyleTableRecord
2
STANDARD
70
0
0
ENDTAB
0
TABLE
2
VIEW
5
6
100
AcDbSymbolTable
0
ENDTAB
0
TABLE
2
UCS
5
7
100
AcDbSymbolTable
0
ENDTAB
0
TABLE
2
APPID
5
9
100
AcDbSymbolTable
70
1
0
APPID
5
12
100
AcDbSymbolTableRecord
100
AcDbRegAppTableRecord
2
ACAD
70
0
0
ENDTAB
0
TABLE
2
DIMSTYLE
5
A
100
AcDbSymbolTable
0
ENDTAB
0
TABLE
2
BLOCK_RECORD
5
1
100
AcDbSymbolTable
70
2
0
BLOCK_RECORD
5
1F
100
AcDbSymbolTableRecord
100
AcDbBlockTableRecord
2
*MODEL_SPACE
0
BLOCK_RECORD
5
1B
100
AcDbSymbolTableRecord
100
AcDbBlockTableRecord
2
*PAPER_SPACE
0
ENDTAB
0
ENDSEC
0
SECTION
2
BLOCKS
0
BLOCK
5
20
100
AcDbEntity
100
AcDbBlockBegin
2
*MODEL_SPACE
0
ENDBLK
5
21
100
AcDbEntity
100
AcDbBlockEnd
0
BLOCK
5
1C
100
AcDbEntity
100
AcDbBlockBegin
2
*PAPER_SPACE
0
ENDBLK
5
1D
100
AcDbEntity
100
AcDbBlockEnd
0
ENDSEC
0
SECTION
2
ENTITIES
0
CIRCLE
5
100
100
AcDbEntity
8
CUTOUTS
100
AcDbCircle
10
44.500000000000014
20
-5
30
0
40
5.8499999999999996
210
0
220
0
230
1
0
CIRCLE
5
101
100
AcDbEntity
8
CUTOUTS
100
AcDbCircle
10
-244.5
20
-5.0000000000000089
30
0
40
5.8500000000000085
210
0
220
0
230
1
0
CIRCLE
5
102
100
AcDbEntity
8
CUTOUTS
100
AcDbCircle
10
-44.500000000000014
20
-5
30
0
40
5.8499999999999996
210
0
220
0
230
1
0
CIRCLE
5
103
100
AcDbEntity
8
CUTOUTS
100
AcDbCircle
10
244.5
20
-5.0000000000000089
30
0
40
5.8500000000000085
210
0
220
0
230
1
0
LINE
5
104
100
AcDbEntity
8
CUTOUTS
100
AcDbLine
10
144.49999999999997
20
0.85000000000001741
30
0
11
155.5
21
0.85000000000000853
31
0
0
ARC
5
105
100
AcDbEntity
8
CUTOUTS
100
AcDbCircle
10
155.5
20
-5.0000000000000089
30
0
40
5.8500000000000174
210
0
220
0
230
1
100
AcDbArc
50
-90
51
90
0
LINE
5
106
100
AcDbEntity
8
CUTOUTS
100
AcDbLine
10
155.5
20
-10.850000000000026
30
0
11
144.5
21
-10.850000000000017
31
0
0
ARC
5
107
100
AcDbEntity
8
CUTOUTS
100
AcDbCircle
10
144.5
20
-5
30
0
40
5.8500000000000165
210
0
220
0
230
1
100
AcDbArc
50
90.00000000000027
51
270
0
ARC
5
108
100
AcDbEntity
8
CUTOUTS
100
AcDbCircle
10
-144.5
20
-5
30
0
40
5.8499999999999996
210
0
220
0
230
1
100
AcDbArc
50
-90
51
89.999999999999716
0
LINE
5
109
100
AcDbEntity
8
CUTOUTS
100
AcDbLine
10
-155.5
20
0.85000000000000853
30
0
11
-144.49999999999997
21
0.84999999999999964
31
0
0
ARC
5
10A
100
AcDbEntity
8
CUTOUTS
100
AcDbCircle
10
-155.5
20
-5.0000000000000089
30
0
40
5.8500000000000165
210
0
220
0
230
1
100
AcDbArc
50
90
51
270.00000000000034
0
LINE
5
10B
100
AcDbEntity
8
CUTOUTS
100
AcDbLine
10
-144.5
20
-10.85
30
0
11
-155.49999999999997
21
-10.850000000000026
31
0
0
LINE
5
10C
100
AcDbEntity
8
PERIMETER
100
AcDbLine
10
10.461131095770391
20
55.149999999999991
30
0
11
2.2204460492503131e-15
21
49.338260502349826
31
0
0
LINE
5
10D
100
AcDbEntity
8
PERIMETER
100
AcDbLine
10
2.2204460492503131e-15
20
49.338260502349826
30
0
11
-10.461131095770382
21
55.149999999999991
31
0
0
LINE
5
10E
100
AcDbEntity
8
PERIMETER
100
AcDbLine
10
-10.461131095770382
20
55.149999999999991
30
0
11
-78.538868904229602
21
55.150000000000006
31
0
0
LINE
5
10F
100
AcDbEntity
8
PERIMETER
100
AcDbLine
10
-78.538868904229602
20
55.150000000000006
30
0
11
-96.538868904229616
21
45.15000000000002
31
0
0
LINE
5
110
100
AcDbEntity
8
PERIMETER
100
AcDbLine
10
-96.538868904229616
20
45.15000000000002
30
0
11
-114.5483820300125
21
45.15000000000002
31
0
0
LINE
5
111
100
AcDbEntity
8
PERIMETER
100
AcDbLine
10
-114.5483820300125
20
45.15000000000002
30
0
11
-139.5483820300125
21
27.150000000000016
31
0
0
LINE
5
112
100
AcDbEntity
8
PERIMETER
100
AcDbLine
10
-139.5483820300125
20
27.150000000000016
30
0
11
-149.44738284109627
21
27.150000000000016
31
0
0
LINE
5
113
100
AcDbEntity
8
PERIMETER
100
AcDbLine
10
-149.44738284109627
20
27.150000000000016
30
0
11
-159.44738284109627
21
35.15000000000002
31
0
0
LINE
5
114
100
AcDbEntity
8
PERIMETER
100
AcDbLine
10
-159.44738284109627
20
35.15000000000002
30
0
11
-344.65000000000003
21
35.15000000000002
31
0
0
LINE
5
115
100
AcDbEntity
8
PERIMETER
100
AcDbLine
10
-344.65000000000003
20
35.15000000000002
30
0
11
-344.65000000000003
21
-55.150000000000006
31
0
0
LINE
5
116
100
AcDbEntity
8
PERIMETER
100
AcDbLine
10
-344.65000000000003
20
-55.150000000000006
30
0
11
344.65000000000003
21
-55.150000000000006
31
0
0
LINE
5
117
100
AcDbEntity
8
PERIMETER
100
AcDbLine
10
344.65000000000003
20
-55.150000000000006
30
0
11
344.65000000000003
21
35.15000000000002
31
0
0
LINE
5
118
100
AcDbEntity
8
PERIMETER
100
AcDbLine
10
344.65000000000003
20
35.15000000000002
30
0
11
159.4473828410963
21
35.15000000000002
31
0
0
LINE
5
119
100
AcDbEntity
8
PERIMETER
100
AcDbLine
10
159.4473828410963
20
35.15000000000002
30
0
11
149.44738284109627
21
27.150000000000016
31
0
0
LINE
5
11A
100
AcDbEntity
8
PERIMETER
100
AcDbLine
10
149.44738284109627
20
27.150000000000016
30
0
11
139.5483820300125
21
27.150000000000016
31
0
0
LINE
5
11B
100
AcDbEntity
8
PERIMETER
100
AcDbLine
10
139.5483820300125
20
27.150000000000016
30
0
11
114.54838203001248
21
45.15000000000002
31
0
0
LINE
5
11C
100
AcDbEntity
8
PERIMETER
100
AcDbLine
10
114.54838203001248
20
45.15000000000002
30
0
11
96.538868904229602
21
45.15000000000002
31
0
0
LINE
5
11D
100
AcDbEntity
8
PERIMETER
100
AcDbLine
10
96.538868904229602
20
45.15000000000002
30
0
11
78.538868904229588
21
55.150000000000006
31
0
0
LINE
5
11E
100
AcDbEntity
8
PERIMETER
100
AcDbLine
10
78.538868904229588
20
55.150000000000006
30
0
11
10.461131095770391
21
55.149999999999991
31
0
0
ENDSEC
0
SECTION
2
OBJECTS
0
DICTIONARY
5
C
100
AcDbDictionary
3
ACAD_GROUP
350
D
3
ACAD_MLINESTYLE
350
17
0
DICTIONARY
5
D
100
AcDbDictionary
0
DICTIONARY
5
1A
330
C
100
AcDbDictionary
0
DICTIONARY
5
17
100
AcDbDictionary
0
ENDSEC
0
EOF
